<?xml version="1.0" encoding="UTF-8"?>
<!DOCTYPE svg PUBLIC "-//W3C//DTD SVG 1.1//EN" "http://www.w3.org/Graphics/SVG/1.1/DTD/svg11.dtd">
<svg xmlns="http://www.w3.org/2000/svg" version="1.1" width="1080px" height="1080px" style="shape-rendering:geometricPrecision; text-rendering:geometricPrecision; image-rendering:optimizeQuality; fill-rule:evenodd; clip-rule:evenodd" xmlns:xlink="http://www.w3.org/1999/xlink">
<g><path style="opacity:0.968" fill="#000000" d="M 16.5,191.5 C 153.167,191.333 289.834,191.5 426.5,192C 428.939,192.774 430.773,194.274 432,196.5C 432.667,224.167 432.667,251.833 432,279.5C 431.535,280.931 430.701,282.097 429.5,283C 376.251,284.491 322.917,284.991 269.5,284.5C 269.333,342.834 269.5,401.168 270,459.5C 344.586,410.124 419.086,360.624 493.5,311C 498.413,308.413 502.58,309.247 506,313.5C 507.125,325.446 507.625,337.446 507.5,349.5C 507.625,361.554 507.125,373.554 506,385.5C 449.727,417.389 392.894,448.389 335.5,478.5C 334.167,497.167 334.167,515.833 335.5,534.5C 564.795,620.432 794.128,706.265 1023.5,792C 1026.88,793.38 1028.72,795.88 1029,799.5C 1029.67,821.167 1029.67,842.833 1029,864.5C 1028.33,869.167 1025.67,871.833 1021,872.5C 770.445,766.057 520.112,659.057 270,551.5C 269.667,627.167 269.333,702.833 269,778.5C 268.167,781.333 266.333,783.167 263.5,784C 234.438,784.975 205.438,784.642 176.5,783C 174.513,781.681 173.346,779.848 173,777.5C 172.5,613.167 172.333,448.834 172.5,284.5C 119.416,284.991 66.4161,284.491 13.5,283C 11.5125,281.681 10.3459,279.848 10,277.5C 9.33333,251.167 9.33333,224.833 10,198.5C 11.0183,194.985 13.1849,192.652 16.5,191.5 Z"/></g>
<g><path style="opacity:1" fill="#808080" d="M 417.5,207.5 C 417.167,207.5 416.833,207.5 416.5,207.5C 286.167,207.5 155.833,207.5 25.5,207.5C 25.5,227.833 25.5,248.167 25.5,268.5C 77.336,268.168 129.003,268.501 180.5,269.5C 128.5,269.5 76.5,269.5 24.5,269.5C 24.5,248.5 24.5,227.5 24.5,206.5C 155.668,206.167 286.668,206.5 417.5,207.5 Z"/></g>
<g><path style="opacity:1" fill="#fdfdfd" d="M 416.5,207.5 C 416.5,227.833 416.5,248.167 416.5,268.5C 364.664,268.168 312.997,268.501 261.5,269.5C 258.737,269.744 256.571,271.077 255,273.5C 254.333,340.833 254.333,408.167 255,475.5C 256.92,481.563 260.753,483.063 266.5,480C 341.32,430.67 415.987,381.17 490.5,331.5C 491.496,346.658 491.83,361.991 491.5,377.5C 434.701,407.733 378.034,438.233 321.5,469C 320.874,469.75 320.374,470.584 320,471.5C 319.333,495.167 319.333,518.833 320,542.5C 320.374,543.416 320.874,544.25 321.5,545C 552.074,631.802 782.741,718.302 1013.5,804.5C 1013.83,820.675 1013.5,836.675 1012.5,852.5C 763.319,746.493 514.319,639.993 265.5,533C 258.952,531.392 255.285,533.892 254.5,540.5C 253.501,616.332 253.167,692.332 253.5,768.5C 231.833,768.5 210.167,768.5 188.5,768.5C 188.833,603.999 188.5,439.666 187.5,275.5C 186.998,271.41 184.665,269.41 180.5,269.5C 129.003,268.501 77.336,268.168 25.5,268.5C 25.5,248.167 25.5,227.833 25.5,207.5C 155.833,207.5 286.167,207.5 416.5,207.5 Z"/></g>
<g><path style="opacity:1" fill="#999999" d="M 416.5,207.5 C 416.833,207.5 417.167,207.5 417.5,207.5C 417.5,228.167 417.5,248.833 417.5,269.5C 365.5,269.5 313.5,269.5 261.5,269.5C 312.997,268.501 364.664,268.168 416.5,268.5C 416.5,248.167 416.5,227.833 416.5,207.5 Z"/></g>
<g><path style="opacity:1" fill="#333333" d="M 490.5,331.5 C 490.56,330.957 490.893,330.624 491.5,330.5C 492.827,346.328 492.827,361.995 491.5,377.5C 491.83,361.991 491.496,346.658 490.5,331.5 Z"/></g>
<g><path style="opacity:1" fill="#7a7a7a" d="M 187.5,275.5 C 188.5,439.666 188.833,603.999 188.5,768.5C 210.167,768.5 231.833,768.5 253.5,768.5C 253.167,692.332 253.501,616.332 254.5,540.5C 254.5,616.833 254.5,693.167 254.5,769.5C 232.167,769.5 209.833,769.5 187.5,769.5C 187.5,604.833 187.5,440.167 187.5,275.5 Z"/></g>
<g><path style="opacity:1" fill="#353535" d="M 1013.5,804.5 C 1014.83,820.672 1014.83,837.005 1013.5,853.5C 1012.89,853.376 1012.56,853.043 1012.5,852.5C 1013.5,836.675 1013.83,820.675 1013.5,804.5 Z"/></g>
</svg>
